<svg xmlns="http://www.w3.org/2000/svg" viewBox="0 0 128 128">
  <circle cx="64" cy="64" r="59" fill="#171b12" stroke="#080a0c" stroke-width="8"/>
  <circle cx="64" cy="64" r="49" fill="#9aa83f" stroke="#dce68a" stroke-width="5"/>
  <path d="M34 76c0-23 12-39 31-39 18 0 31 16 31 39l-9 27H42z" fill="#262d1d" stroke="#080a0c" stroke-width="6" stroke-linejoin="round"/>
  <path d="M35 52L22 37l20 2M93 47l14-17-3 23M46 99l-12 12M83 101l13 10" fill="none" stroke="#9aa83f" stroke-width="7" stroke-linecap="round"/>
  <path d="M43 66c7-10 17-10 23 0-7 9-17 9-23 0z" fill="#dce68a" stroke="#080a0c" stroke-width="4"/>
  <circle cx="55" cy="66" r="4" fill="#080a0c"/>
  <path d="M71 60l17 7-15 10z" fill="#dce68a" stroke="#080a0c" stroke-width="4" stroke-linejoin="round"/>
  <path d="M51 87h27M56 87v12M65 87v12M74 87v12" fill="none" stroke="#dce68a" stroke-width="5" stroke-linecap="round"/>
</svg>
