<svg xmlns="http://www.w3.org/2000/svg" viewBox="0 0 128 128" role="img" aria-label="Mutants">
  <circle cx="64" cy="66" r="59" fill="#151915"/>
  <circle cx="64" cy="63" r="58" fill="#e6dcc3" stroke="#242522" stroke-width="3"/>
  <circle cx="64" cy="63" r="53" fill="#98a05a"/>
  <circle cx="64" cy="63" r="47" fill="#242522"/>
  <path d="M24 32 32 24M96 102 104 94" stroke="#e6dcc3" stroke-width="3"/>
  <path d="M39 43 54 27 76 31 91 49 88 77 79 85 77 99 51 102 48 84 36 75Z" fill="#e6dcc3"/>
    <path d="M42 52 60 55 58 68 45 66ZM70 54 84 49 81 64 70 67ZM63 69 70 81H57Z" fill="#242522"/>
    <path d="M53 87V98M63 86V101M72 85V98M60 30 55 42 68 47" stroke="#242522" stroke-width="4"/>
    <path d="M28 34 38 41M95 34 88 44M27 87 39 80M90 84 101 92" stroke="#98a05a" stroke-width="5"/>
  <!-- Sparse edge wear stays outside the semantic silhouette. -->
  <path d="M16 45 19 38M28 104 35 109M105 30 109 38M88 113 94 110" fill="none" stroke="#e6dcc3" stroke-width="2"/>
</svg>
